<?xml version="1.0" standalone="no"?>
<svg xmlns:xlink="http://www.w3.org/1999/xlink" id="wave" style="transform:rotate(0deg); transition: 0.3s" viewBox="0 0 1440 490" version="1.1" xmlns="http://www.w3.org/2000/svg"><defs><linearGradient id="sw-gradient-0" x1="0" x2="0" y1="1" y2="0"><stop stop-color="rgba(243, 106, 62, 1)" offset="0%"/><stop stop-color="rgba(255, 179, 11, 1)" offset="100%"/></linearGradient></defs><path style="transform:translate(0, 0px); opacity:1" fill="url(#sw-gradient-0)" d="M0,0L26.7,73.5C53.3,147,107,294,160,294C213.3,294,267,147,320,106.2C373.3,65,427,131,480,179.7C533.3,229,587,261,640,294C693.3,327,747,359,800,359.3C853.3,359,907,327,960,294C1013.3,261,1067,229,1120,228.7C1173.3,229,1227,261,1280,228.7C1333.3,196,1387,98,1440,106.2C1493.3,114,1547,229,1600,245C1653.3,261,1707,180,1760,163.3C1813.3,147,1867,196,1920,253.2C1973.3,310,2027,376,2080,367.5C2133.3,359,2187,278,2240,261.3C2293.3,245,2347,294,2400,318.5C2453.3,343,2507,343,2560,294C2613.3,245,2667,147,2720,138.8C2773.3,131,2827,212,2880,261.3C2933.3,310,2987,327,3040,277.7C3093.3,229,3147,114,3200,65.3C3253.3,16,3307,33,3360,106.2C3413.3,180,3467,310,3520,310.3C3573.3,310,3627,180,3680,147C3733.3,114,3787,180,3813,212.3L3840,245L3840,490L3813.3,490C3786.7,490,3733,490,3680,490C3626.7,490,3573,490,3520,490C3466.7,490,3413,490,3360,490C3306.7,490,3253,490,3200,490C3146.7,490,3093,490,3040,490C2986.7,490,2933,490,2880,490C2826.7,490,2773,490,2720,490C2666.7,490,2613,490,2560,490C2506.7,490,2453,490,2400,490C2346.7,490,2293,490,2240,490C2186.7,490,2133,490,2080,490C2026.7,490,1973,490,1920,490C1866.7,490,1813,490,1760,490C1706.7,490,1653,490,1600,490C1546.7,490,1493,490,1440,490C1386.7,490,1333,490,1280,490C1226.7,490,1173,490,1120,490C1066.7,490,1013,490,960,490C906.7,490,853,490,800,490C746.7,490,693,490,640,490C586.7,490,533,490,480,490C426.7,490,373,490,320,490C266.7,490,213,490,160,490C106.7,490,53,490,27,490L0,490Z"/></svg>